<?xml version="1.0" encoding="iso-8859-1"?>
<!-- Uploaded to: SVG Repo, www.svgrepo.com, Generator: SVG Repo Mixer Tools -->
<svg version="1.1" id="Layer_1" xmlns="http://www.w3.org/2000/svg" xmlns:xlink="http://www.w3.org/1999/xlink" 
	 viewBox="0 0 512 512" xml:space="preserve">
<polygon style="fill:#7AB9E8;" points="256,512 0,512 0,256 128,256 128,240 272,240 "/>
<polygon style="fill:#FFDB2D;" points="512,512 256,512 256,240 384,240 384,256 512,256 "/>
<rect x="128" style="fill:#FF6643;" width="256" height="256"/>
<rect x="256" style="fill:#FF4F19;" width="128" height="256"/>
<rect x="384" y="256" style="fill:#FFAF33;" width="128" height="256"/>
<rect x="128" y="256" style="fill:#579ADF;" width="128" height="256"/>
<g>
	<path style="fill:#F2F2F4;" d="M170.264,408.912c0-18.693-13.154-24.48-19.008-26.208c4.896-2.208,14.688-9.184,14.688-23.616
		c0-17.502-13.141-26.21-23.328-26.21h-56.88v102.24h49.824C166.635,435.12,170.264,415.92,170.264,408.912z M109.352,353.04H133.4
		c4.603,0,9.072,3.546,9.072,10.51c0,7.402-4.803,10.656-9.936,10.656h-23.184V353.04z M109.352,392.784h27.216
		c4.918,0,9.648,4.286,9.648,11.376c0,6.859-5.13,10.944-10.656,10.944h-26.208L109.352,392.784L109.352,392.784z"/>
	<path style="fill:#F2F2F4;" d="M240.016,156.224h31.824l7.92,22.898h24.192l-37.298-102.24h-21.31l-37.298,102.24h24.192
		L240.016,156.224z M256,103.808l11.952,36.144H243.76L256,103.808z"/>
	<path style="fill:#F2F2F4;" d="M337.416,382.992c0-30.715,24.706-50.832,51.264-50.832c22.142,0,35.142,11.816,40.754,22.318
		l-18.146,12.672c-6.333-14.274-21.074-13.966-23.182-13.966c-14.883,0-26.64,12.325-26.64,30.672
		c0,14.587,9.226,30.962,26.928,30.962c10.763,0,19.43-5.739,22.896-14.112l19.298,11.374c-5.462,12.896-21.763,23.76-42.768,23.76
		C359.922,435.84,337.416,410.978,337.416,382.992z"/>
</g>
<g>
	<path style="fill:#DFDFE1;" d="M151.256,382.704c4.896-2.208,14.688-9.184,14.688-23.616c0-17.502-13.141-26.21-23.328-26.21H128
		v20.162h5.4c4.603,0,9.072,3.546,9.072,10.51c0,7.402-4.803,10.656-9.936,10.656H128v18.576h8.566
		c4.918,0,9.648,4.286,9.648,11.376c0,6.859-5.13,10.944-10.656,10.944H128v20.016h7.56c31.077,0,34.704-19.2,34.704-26.208
		C170.264,390.221,157.11,384.434,151.256,382.704z"/>
	<polygon style="fill:#DFDFE1;" points="266.656,76.88 256,76.88 256,103.81 256,103.808 267.952,139.952 256,139.952 256,156.224 
		271.84,156.224 279.76,179.12 303.952,179.12 	"/>
	<path style="fill:#DFDFE1;" d="M384,353.541c1.339-0.214,2.702-0.357,4.104-0.357c2.109,0,16.851-0.306,23.182,13.966
		l18.146-12.672c-5.611-10.502-18.611-22.318-40.754-22.318c-1.568,0-3.13,0.075-4.68,0.214v21.166H384z"/>
	<path style="fill:#DFDFE1;" d="M411.288,400.704c-3.466,8.373-12.133,14.112-22.896,14.112c-1.53,0-2.99-0.13-4.392-0.363v21.213
		c1.261,0.104,2.53,0.174,3.816,0.174c21.006,0,37.306-10.864,42.768-23.762L411.288,400.704z"/>
</g>
</svg>